<?xml version="1.0" encoding="utf-8"?>
<!-- Generator: Adobe Illustrator 15.1.0, SVG Export Plug-In . SVG Version: 6.00 Build 0)  -->
<!DOCTYPE svg PUBLIC "-//W3C//DTD SVG 1.1//EN" "http://www.w3.org/Graphics/SVG/1.1/DTD/svg11.dtd">
<svg version="1.1" id="Layer_1" xmlns="http://www.w3.org/2000/svg" xmlns:xlink="http://www.w3.org/1999/xlink" x="0px" y="0px"
	 width="151.75px" height="57.125px" viewBox="0 0 151.75 57.125" enable-background="new 0 0 151.75 57.125" xml:space="preserve">
<linearGradient id="SVGID_1_" gradientUnits="userSpaceOnUse" x1="76.0859" y1="17.125" x2="76.0859" y2="37.9596">
	<stop  offset="0" style="stop-color:#FFFFFF;stop-opacity:0.8"/>
	<stop  offset="1" style="stop-color:#FFFFFF;stop-opacity:0.25"/>
</linearGradient>
<path fill-rule="evenodd" clip-rule="evenodd" fill="url(#SVGID_1_)" stroke="#FFFFFF" stroke-width="0.5" stroke-miterlimit="10" stroke-opacity="0.5" d="
	M97.539,37.032l-10.012,1.186c-3.604,0.498-6.93-2.021-7.428-5.627l5.051-0.71c0.699,0.905,2.121,1.384,3.334,1.216l6.527-0.901
	c1.803-0.248,3.062-1.911,2.814-3.714l-0.676-4.896c-0.25-1.803-1.912-3.062-3.715-2.814l-6.527,0.902
	c-1.279,0.176-2.438,0.945-2.826,2.09l-5.109,0.668c-0.498-3.605,2.021-6.932,5.627-7.43l9.875-1.46
	c3.605-0.498,6.932,2.021,7.43,5.626l1.262,8.436C103.664,33.209,101.145,36.535,97.539,37.032z M63.894,21.165l-6.59-0.019
	c-1.819-0.005-3.299,1.467-3.303,3.286l-0.014,4.942c-0.005,1.819,1.467,3.299,3.286,3.304l6.59,0.018
	c1.225,0.004,2.569-0.661,3.14-1.651l5.392,0.125c-0.01,3.639-2.967,6.581-6.607,6.571l-10.272-0.028
	c-3.64-0.01-6.582-2.968-6.572-6.607l0.12-8.334c0.01-3.639,2.968-6.582,6.607-6.571l9.885,0.026
	c3.639,0.01,6.582,2.969,6.572,6.607l-5.152,0.023C66.437,21.775,65.184,21.168,63.894,21.165z M63.515,26.565
	c0.004-1.364,1.113-2.468,2.478-2.464l7.589,0.152v5.174l-7.239-0.02C64.978,29.404,63.511,27.93,63.515,26.565z M87.613,27.322
	c0.188,1.353-0.676,2.662-2.027,2.849l-6.807,0.939l-0.715-5.084l6.764-0.813C86.18,25.025,87.428,25.971,87.613,27.322z"/>
<linearGradient id="SVGID_2_" gradientUnits="userSpaceOnUse" x1="67.5576" y1="15.4795" x2="73.9883" y2="15.4795">
	<stop  offset="0" style="stop-color:#FFFFFF;stop-opacity:0.8"/>
	<stop  offset="1" style="stop-color:#FFFFFF;stop-opacity:0.25"/>
</linearGradient>
<path fill-rule="evenodd" clip-rule="evenodd" fill="url(#SVGID_2_)" d="M72.987,19.049l-5.35-5.887c0,0-0.586-1.788,1.419-1.346
	l4.898,6.501C73.955,18.317,74.266,19.672,72.987,19.049z"/>
<linearGradient id="SVGID_3_" gradientUnits="userSpaceOnUse" x1="75.2246" y1="14.6992" x2="76.9463" y2="14.6992">
	<stop  offset="0" style="stop-color:#FFFFFF;stop-opacity:0.8"/>
	<stop  offset="1" style="stop-color:#FFFFFF;stop-opacity:0.25"/>
</linearGradient>
<path fill-rule="evenodd" clip-rule="evenodd" fill="url(#SVGID_3_)" d="M76.591,18.305l0.355-7.013c0,0-0.601-1.548-1.722-0.124
	l0.296,7.178C75.521,18.346,76.016,19.469,76.591,18.305z"/>
<linearGradient id="SVGID_4_" gradientUnits="userSpaceOnUse" x1="77.7861" y1="15.457" x2="84.1953" y2="15.457">
	<stop  offset="0" style="stop-color:#FFFFFF;stop-opacity:0.8"/>
	<stop  offset="1" style="stop-color:#FFFFFF;stop-opacity:0.25"/>
</linearGradient>
<path fill-rule="evenodd" clip-rule="evenodd" fill="url(#SVGID_4_)" d="M78.766,19.049l5.351-5.887c0,0,0.586-1.788-1.42-1.346
	l-4.898,6.501C77.798,18.317,77.609,19.547,78.766,19.049z"/>
<linearGradient id="SVGID_5_" gradientUnits="userSpaceOnUse" x1="67.5576" y1="39.2979" x2="73.9883" y2="39.2979">
	<stop  offset="0" style="stop-color:#FFFFFF;stop-opacity:0.8"/>
	<stop  offset="1" style="stop-color:#FFFFFF;stop-opacity:0.25"/>
</linearGradient>
<path fill-rule="evenodd" clip-rule="evenodd" fill="url(#SVGID_5_)" d="M73.955,36.46l-4.898,6.501
	c-2.006,0.442-1.419-1.346-1.419-1.346l5.35-5.887C74.266,35.105,73.955,36.46,73.955,36.46z"/>
<linearGradient id="SVGID_6_" gradientUnits="userSpaceOnUse" x1="75.2246" y1="40.0781" x2="76.9463" y2="40.0781">
	<stop  offset="0" style="stop-color:#FFFFFF;stop-opacity:0.8"/>
	<stop  offset="1" style="stop-color:#FFFFFF;stop-opacity:0.25"/>
</linearGradient>
<path fill-rule="evenodd" clip-rule="evenodd" fill="url(#SVGID_6_)" d="M75.521,36.432l-0.296,7.178
	c1.121,1.424,1.722-0.123,1.722-0.123l-0.355-7.014C76.016,35.309,75.521,36.432,75.521,36.432z"/>
<linearGradient id="SVGID_7_" gradientUnits="userSpaceOnUse" x1="77.7861" y1="39.3203" x2="84.1953" y2="39.3203">
	<stop  offset="0" style="stop-color:#FFFFFF;stop-opacity:0.8"/>
	<stop  offset="1" style="stop-color:#FFFFFF;stop-opacity:0.25"/>
</linearGradient>
<path fill-rule="evenodd" clip-rule="evenodd" fill="url(#SVGID_7_)" d="M77.798,36.46l4.898,6.501
	c2.006,0.442,1.42-1.346,1.42-1.346l-5.351-5.887C77.609,35.23,77.798,36.46,77.798,36.46z"/>
<g>
	<linearGradient id="SVGID_8_" gradientUnits="userSpaceOnUse" x1="19.9746" y1="15.4902" x2="19.9746" y2="27.1852">
		<stop  offset="0" style="stop-color:#FFFFFF;stop-opacity:0.8"/>
		<stop  offset="1" style="stop-color:#FFFFFF;stop-opacity:0.25"/>
	</linearGradient>
	
		<polygon fill-rule="evenodd" clip-rule="evenodd" fill="url(#SVGID_8_)" stroke="#FFFFFF" stroke-width="0.5" stroke-miterlimit="10" stroke-opacity="0.5" points="
		25.051,27.028 25.051,15.49 14.898,27.028 	"/>
	<linearGradient id="SVGID_9_" gradientUnits="userSpaceOnUse" x1="22.6846" y1="0.5098" x2="22.6846" y2="57.269">
		<stop  offset="0" style="stop-color:#FFFFFF;stop-opacity:0.8"/>
		<stop  offset="1" style="stop-color:#FFFFFF;stop-opacity:0.25"/>
	</linearGradient>
	
		<path fill-rule="evenodd" clip-rule="evenodd" fill="url(#SVGID_9_)" stroke="#FFFFFF" stroke-width="0.5" stroke-miterlimit="10" stroke-opacity="0.5" d="
		M40.685,0.51h-36c-2.209,0-4,1.791-4,4v48c0,2.209,1.791,4,4,4h27.938l12.062-11.875V4.51C44.685,2.301,42.894,0.51,40.685,0.51z
		 M26.927,37.67c-1.02,0-1.876-0.815-1.876-1.835v-3.18H8.824c-1.061,0-1.917-0.856-1.917-1.876v-2.364
		c0-1.346,0.449-2.243,1.224-3.099L21.3,10.353c0.774-0.855,1.753-1.223,3.099-1.223h6.238c1.06,0,1.916,0.815,1.916,1.875v16.023
		h2.202c1.06,0,1.916,0.815,1.916,1.876v1.875c0,1.02-0.856,1.876-1.916,1.876h-2.202v3.14c0,1.019-0.856,1.875-1.916,1.875H26.927z
		 M41.747,44.135l-9.688,9.688c-1.75,1.75-1.375-1.312-1.375-1.312v-8c0-1.938,1.875-1.938,1.875-1.938h8.438
		C43.935,42.51,41.747,44.135,41.747,44.135z"/>
</g>
<g>
	<linearGradient id="SVGID_10_" gradientUnits="userSpaceOnUse" x1="127.3711" y1="15.4902" x2="127.3711" y2="27.1852">
		<stop  offset="0" style="stop-color:#FFFFFF;stop-opacity:0.8"/>
		<stop  offset="1" style="stop-color:#FFFFFF;stop-opacity:0.25"/>
	</linearGradient>
	
		<polygon fill-rule="evenodd" clip-rule="evenodd" fill="url(#SVGID_10_)" stroke="#FFFFFF" stroke-width="0.5" stroke-miterlimit="10" stroke-opacity="0.5" points="
		132.447,27.028 132.447,15.49 122.295,27.028 	"/>
	<linearGradient id="SVGID_11_" gradientUnits="userSpaceOnUse" x1="129.1855" y1="0.5098" x2="129.1855" y2="57.269">
		<stop  offset="0" style="stop-color:#FFFFFF;stop-opacity:0.8"/>
		<stop  offset="1" style="stop-color:#FFFFFF;stop-opacity:0.25"/>
	</linearGradient>
	
		<path fill-rule="evenodd" clip-rule="evenodd" fill="url(#SVGID_11_)" stroke="#FFFFFF" stroke-width="0.5" stroke-miterlimit="10" stroke-opacity="0.5" d="
		M147.186,0.51h-36c-2.209,0-4,1.791-4,4v40.125l12.062,11.875h27.938c2.209,0,4-1.791,4-4v-48
		C151.186,2.301,149.395,0.51,147.186,0.51z M119.811,53.822l-9.688-9.688c0,0-2.188-1.625,0.75-1.562h8.438
		c0,0,1.875,0,1.875,1.938v8C121.186,52.51,121.561,55.572,119.811,53.822z M144.067,30.779c0,1.02-0.856,1.876-1.916,1.876h-2.202
		v3.14c0,1.019-0.856,1.875-1.916,1.875h-3.71c-1.02,0-1.876-0.815-1.876-1.835v-3.18h-16.227c-1.061,0-1.917-0.856-1.917-1.876
		v-2.364c0-1.346,0.449-2.243,1.224-3.099l13.169-14.964c0.774-0.855,1.753-1.223,3.099-1.223h6.238c1.06,0,1.916,0.815,1.916,1.875
		v16.023h2.202c1.06,0,1.916,0.815,1.916,1.876V30.779z"/>
</g>
</svg>
